name rise30.6535peak61.5555fall82.9339.mot
datacolumns 19
datarows 11
range 9.00663800000000 9.02329900000000
endheader
time	ground_force1_vx	ground_force1_vy	ground_force1_vz	ground_force1_px	ground_force1_py	ground_force1_pz	ground_force2_vx	ground_force2_vy	ground_force2_vz	ground_force2_px	ground_force2_py	ground_force2_pz	ground_torque1_x	ground_torque1_y	ground_torque1_z	ground_torque2_x	ground_torque2_y	ground_torque2_z	
9.00663800000000	-5.36962000000000	42.89351900000000	-10.01063600000000	0.29034600000000	0.00000000000000	0.08526600000000	-45.50336000000000	771.57091100000002	-51.78063100000000	0.10811900000000	0.00000000000000	-0.08500300000000	0.00000000000000	-6.53253200000000	0.00000000000000	0.00000000000000	-16.38266400000000	0.00000000000000	
9.00829200000000	-5.75868300000000	50.34761300000000	-11.20149300000000	0.29611300000000	0.00000000000000	0.08661200000000	-46.04696400000000	768.52436799999998	-51.30440100000000	0.10736400000000	0.00000000000000	-0.08484700000000	0.00000000000000	-7.40703600000000	0.00000000000000	0.00000000000000	-16.31105600000000	0.00000000000000	
9.00998100000000	-6.00858800000000	57.91650400000000	-12.26423400000000	0.30137600000000	0.00000000000000	0.08782600000000	-46.61699100000000	765.38209800000004	-50.81161600000000	0.10660600000000	0.00000000000000	-0.08468700000000	0.00000000000000	-8.21629300000000	0.00000000000000	0.00000000000000	-16.24415300000000	0.00000000000000	
9.01163300000000	-6.10343200000000	65.50496699999999	-13.17253600000000	0.30621400000000	0.00000000000000	0.08892700000000	-47.21268900000000	762.14166899999998	-50.30229700000000	0.10584500000000	0.00000000000000	-0.08452400000000	0.00000000000000	-8.94127200000000	0.00000000000000	0.00000000000000	-16.18189900000000	0.00000000000000	
9.01329800000000	-6.03421200000000	73.04076400000000	-13.90945400000000	0.31069100000000	0.00000000000000	0.08993300000000	-47.83316700000000	758.80053699999996	-49.77647100000000	0.10508300000000	0.00000000000000	-0.08435800000000	0.00000000000000	-9.56886500000000	0.00000000000000	0.00000000000000	-16.12420800000000	0.00000000000000	
9.01497100000000	-5.79863500000000	80.47693400000000	-14.46746800000000	0.31485700000000	0.00000000000000	0.09085700000000	-48.47739800000000	755.35605199999998	-49.23416500000000	0.10432000000000	0.00000000000000	-0.08418800000000	0.00000000000000	-10.09209800000000	0.00000000000000	0.00000000000000	-16.07096700000000	0.00000000000000	
9.01663700000000	-5.40042000000000	87.79162400000000	-14.84775200000000	0.31875500000000	0.00000000000000	0.09170900000000	-49.14421700000000	751.80547200000001	-48.67541700000000	0.10355800000000	0.00000000000000	-0.08401500000000	0.00000000000000	-10.50980500000000	0.00000000000000	0.00000000000000	-16.02203100000000	0.00000000000000	
9.01829900000000	-4.84822600000000	94.98587400000000	-15.05885300000000	0.32241800000000	0.00000000000000	0.09249900000000	-49.83232400000000	748.14596800000004	-48.10026900000000	0.10279700000000	0.00000000000000	-0.08383800000000	0.00000000000000	-10.82587100000000	0.00000000000000	0.00000000000000	-15.97723200000000	0.00000000000000	
9.01997000000000	-4.15437100000000	102.07989800000000	-15.11499500000000	0.32587500000000	0.00000000000000	0.09323500000000	-50.54028200000000	744.37464100000000	-47.50877400000000	0.10203900000000	0.00000000000000	-0.08365800000000	0.00000000000000	-11.04819600000000	0.00000000000000	0.00000000000000	-15.93636900000000	0.00000000000000	
9.02162600000000	-3.33346800000000	109.10843000000000	-15.03421000000000	0.32914800000000	0.00000000000000	0.09392100000000	-51.26652400000000	740.48852899999997	-46.90099400000000	0.10128400000000	0.00000000000000	-0.08347400000000	0.00000000000000	-11.18750500000000	0.00000000000000	0.00000000000000	-15.89921700000000	0.00000000000000	
9.02329900000000	-2.40112700000000	116.11568600000000	-14.83647700000000	0.33225700000000	0.00000000000000	0.09456500000000	-52.00935500000000	736.48462099999995	-46.27700500000000	0.10053500000000	0.00000000000000	-0.08328600000000	0.00000000000000	-11.25612300000000	0.00000000000000	0.00000000000000	-15.86552200000000	0.00000000000000	
